<svg xmlns="http://www.w3.org/2000/svg" version="1.1" xmlns:xlink="http://www.w3.org/1999/xlink" xmlns:svgjs="http://svgjs.dev/svgjs" width="1500" height="1500" viewBox="0 0 1500 1500"><rect width="1500" height="1500" fill="#000000"></rect><g transform="matrix(0.6666666666666666,0,0,0.6666666666666666,249.78425655976667,249.78425655976673)"><svg viewBox="0 0 343 343" data-background-color="#000000" preserveAspectRatio="xMidYMid meet" height="1500" width="1500" xmlns="http://www.w3.org/2000/svg" xmlns:xlink="http://www.w3.org/1999/xlink"><g id="tight-bounds" transform="matrix(1,0,0,1,0.0740000000000407,0.07400000000001228)"><svg viewBox="0 0 342.85155851775386 342.85155851775386" height="342.85155851775386" width="342.85155851775386"><rect width="342.852" height="342.852" fill="#ffffff" mask="url(#7782e6a4-da10-4a9e-a7dc-e1ec579b30ae)" data-fill-palette-color="tertiary"></rect><g><svg></svg></g><g><svg viewBox="0 0 342.85155851775386 342.85155851775386" height="342.85155851775386" width="342.85155851775386"><g><path d="M0 171.426c0-94.676 76.75-171.426 171.426-171.426 94.676 0 171.426 76.75 171.426 171.426 0 94.676-76.75 171.426-171.426 171.426-94.676 0-171.426-76.75-171.426-171.426zM171.426 340.354c93.297 0 168.928-75.632 168.928-168.928 0-93.297-75.632-168.928-168.928-168.928-93.297 0-168.928 75.632-168.928 168.928 0 93.297 75.632 168.928 168.928 168.928z" data-fill-palette-color="tertiary" fill="#ffffff" stroke="transparent"></path><ellipse rx="164.56874808852186" ry="164.56874808852186" cx="171.42577925887693" cy="171.42577925887693" fill="#ffffff" stroke="transparent" stroke-width="0" fill-opacity="1" data-fill-palette-color="tertiary"></ellipse></g><g transform="matrix(1,0,0,1,64.84655864529837,124.77274780195356)"><svg viewBox="0 0 213.1584412271571 93.30606291384673" height="93.30606291384673" width="213.1584412271571"><g><svg viewBox="0 0 419.04345151842494 183.42831945063153" height="93.30606291384673" width="213.1584412271571"><g transform="matrix(1,0,0,1,204.8192180851321,39.43040050399851)"><svg viewBox="0 0 214.22423343329288 104.56751844263451" height="104.56751844263451" width="214.22423343329288"><g id="textblocktransform"><svg viewBox="0 0 214.22423343329288 104.56751844263451" height="104.56751844263451" width="214.22423343329288" id="textblock"><g><rect width="214.22423343329288" height="4.90980111712329" x="0" y="60.22763091644359" fill="#000000" opacity="1" stroke-width="0" stroke="transparent" fill-opacity="1" class="rect-qz-0" data-fill-palette-color="quaternary" rx="1%" id="qz-0" data-palette-color="#000000"></rect></g><g transform="matrix(1,0,0,1,0.532896103067884,0)"><svg viewBox="0 0 213.1584412271571 54.44383378894233" height="54.44383378894233" width="213.1584412271571"><g transform="matrix(1,0,0,1,0,0)"><svg width="213.1584412271571" viewBox="2.64 -34.06 146.52 37.43" height="54.44383378894233" data-palette-color="#000000"><path d="M2.64-15.21L2.64-15.21Q2.64-17.24 3.2-19.2 3.76-21.17 4.86-22.95 5.96-24.73 7.58-26.26 9.2-27.78 11.33-28.89 13.45-30 16.05-30.63 18.65-31.25 21.7-31.25L21.7-31.25Q25.76-31.25 28.69-30.2 31.62-29.15 33.84-27.32L33.84-27.32 33.84-30.4 39.6-30.4 39.6-21.61 33.84-21.61Q32.69-23 31.41-24.06 30.13-25.12 28.65-25.85 27.17-26.59 25.43-26.97 23.68-27.34 21.63-27.34L21.63-27.34Q18.6-27.34 16.26-26.39 13.92-25.44 12.3-23.79 10.69-22.14 9.86-19.92 9.03-17.7 9.03-15.19L9.03-15.19Q9.03-12.57 9.86-10.38 10.69-8.18 12.33-6.58 13.96-4.98 16.38-4.08 18.8-3.17 22-3.17L22-3.17Q24.85-3.17 27.12-3.85 29.39-4.52 31.02-5.73 32.64-6.93 33.58-8.62 34.52-10.3 34.74-12.35L34.74-12.35 24.49-12.35 24.49-15.41 40.33-15.41 40.33 0 34.77 0 34.77-3.88Q33.72-2.86 32.41-2.01 31.1-1.17 29.5-0.56 27.91 0.05 25.98 0.39 24.05 0.73 21.78 0.73L21.78 0.73Q17.21 0.73 13.65-0.5 10.08-1.73 7.64-3.88 5.2-6.03 3.92-8.94 2.64-11.84 2.64-15.21ZM35.3-18.97L35.3-19.9 41.36-19.9 41.36-29.15 42.33-29.15 42.33-18.97 35.3-18.97ZM10.79-15.21L10.79-15.21Q10.79-17.43 11.54-19.34 12.28-21.24 13.67-22.64 15.06-24.05 17.08-24.84 19.09-25.63 21.63-25.63L21.63-25.63Q23.39-25.63 24.82-25.38 26.25-25.12 27.38-24.63 28.52-24.15 29.42-23.43 30.32-22.71 31.05-21.78L31.05-21.78Q29.93-22.58 28.86-23.13 27.78-23.68 26.66-24.04 25.54-24.39 24.3-24.55 23.07-24.71 21.63-24.71L21.63-24.71Q19.31-24.71 17.48-23.96 15.65-23.22 14.38-21.94 13.11-20.65 12.44-18.92 11.77-17.19 11.77-15.21L11.77-15.21Q11.77-13.5 12.26-11.99 12.74-10.47 13.79-9.18 14.84-7.89 16.48-6.82 18.12-5.76 20.41-4.96L20.41-4.96Q18.14-5.32 16.36-6.18 14.58-7.03 13.34-8.34 12.11-9.64 11.45-11.36 10.79-13.09 10.79-15.21ZM36.23 1.71L42.09 1.71 42.09-14.18 43.07-14.18 43.07 2.64 36.23 2.64 36.23 1.71ZM25.85-9.72L25.85-10.64 33.37-10.64Q33.33-10.5 33.24-10.22 33.15-9.94 33.06-9.72L33.06-9.72 25.85-9.72ZM8.89-1.17L8.89-1.17Q10.28-0.22 11.68 0.46 13.09 1.15 14.64 1.59 16.19 2.03 17.96 2.23 19.73 2.44 21.83 2.44L21.83 2.44Q23.63 2.44 25.21 2.27 26.78 2.1 28.19 1.73 29.59 1.37 30.85 0.81 32.1 0.24 33.3-0.54L33.3-0.54 33.3 0.59Q30.79 2.12 27.97 2.75 25.15 3.37 21.78 3.37L21.78 3.37Q17.29 3.37 14.12 2.26 10.96 1.15 8.89-1.17ZM49.75-11.4L49.75-11.4Q49.75-14.06 50.9-16.42 52.05-18.77 54.11-20.52 56.17-22.27 59.06-23.28 61.94-24.29 65.38-24.29L65.38-24.29Q68.99-24.29 71.84-23.33 74.68-22.36 76.65-20.65 78.61-18.95 79.65-16.6 80.69-14.26 80.69-11.5L80.69-11.5Q80.69-8.84 79.55-6.59 78.42-4.35 76.33-2.72 74.24-1.1 71.32-0.18 68.41 0.73 64.82 0.73L64.82 0.73Q61.42 0.73 58.65-0.28 55.88-1.29 53.9-2.98 51.93-4.66 50.84-6.85 49.75-9.03 49.75-11.4ZM53.59-1.12L53.59-1.12Q55.95 0.59 58.82 1.51 61.69 2.44 65.31 2.44L65.31 2.44Q68.67 2.44 71.77 1.53 74.88 0.61 77.24-1.17 79.61-2.95 81.03-5.55 82.44-8.15 82.44-11.5L82.44-11.5Q82.44-13.13 81.99-14.81 81.54-16.48 80.72-18.02 79.9-19.56 78.73-20.89 77.56-22.22 76.12-23.14L76.12-23.14Q77.76-22.41 79.11-21.22 80.47-20.02 81.42-18.49 82.37-16.97 82.9-15.19 83.42-13.4 83.42-11.5L83.42-11.5Q83.42-9.11 82.74-7.07 82.05-5.03 80.84-3.38 79.64-1.73 77.96-0.46 76.29 0.81 74.29 1.65 72.29 2.49 70.03 2.93 67.77 3.37 65.43 3.37L65.43 3.37Q63.47 3.37 61.69 3.06 59.91 2.76 58.38 2.19 56.86 1.61 55.64 0.78 54.42-0.05 53.59-1.12ZM55.17-11.5L55.17-11.5Q55.17-9.62 55.89-8.07 56.61-6.52 57.93-5.41 59.25-4.3 61.09-3.69 62.94-3.08 65.18-3.08L65.18-3.08Q67.45-3.08 69.31-3.7 71.16-4.32 72.51-5.43 73.85-6.54 74.58-8.09 75.31-9.64 75.31-11.5L75.31-11.5Q75.31-13.33 74.58-14.95 73.85-16.58 72.53-17.81 71.21-19.04 69.37-19.76 67.53-20.48 65.31-20.48L65.31-20.48Q62.99-20.48 61.12-19.79 59.25-19.09 57.93-17.88 56.61-16.67 55.89-15.04 55.17-13.4 55.17-11.5ZM56.88-11.4L56.88-11.4Q56.88-12.94 57.49-14.29 58.1-15.65 59.21-16.64 60.32-17.63 61.87-18.2 63.43-18.77 65.31-18.77L65.31-18.77Q66.5-18.77 67.62-18.52 68.75-18.26 69.7-17.77 70.65-17.29 71.38-16.59 72.12-15.89 72.56-15.01L72.56-15.01Q70.94-16.48 69.2-17.16 67.45-17.85 65.26-17.85L65.26-17.85Q63.67-17.85 62.33-17.33 60.98-16.82 59.98-15.94 58.98-15.06 58.42-13.89 57.86-12.72 57.86-11.4L57.86-11.4Q57.86-10.3 58.13-9.35 58.4-8.4 59.04-7.58 59.69-6.76 60.76-6.1 61.84-5.44 63.45-4.93L63.45-4.93Q61.98-5.03 60.78-5.55 59.57-6.08 58.7-6.93 57.83-7.79 57.36-8.94 56.88-10.08 56.88-11.4ZM89.16 0L89.16-3.66 94.53-3.66 94.53-30.4 89.16-30.4 89.16-34.06 99.78-34.06 99.78-3.66 105.15-3.66 105.15 0 89.16 0ZM101.48-5.13L101.48-32.81 102.46-32.81 102.46-5.13 101.48-5.13ZM90.62-27.76L90.62-28.69 93.5-28.69 93.5-27.76 90.62-27.76ZM90.62 1.71L106.9 1.71 106.9-2.29 107.88-2.29 107.88 2.64 90.62 2.64 90.62 1.71ZM112.39-11.45L112.39-11.45Q112.39-13.72 113.35-15.93 114.3-18.14 116.17-19.89 118.03-21.63 120.79-22.72 123.55-23.8 127.14-23.8L127.14-23.8Q128.29-23.8 129.59-23.63 130.9-23.46 132.21-23.07 133.51-22.68 134.76-22.03 136-21.39 137.03-20.46L137.03-20.46 137.03-30.15 131.66-30.15 131.66-34.06 142.28-34.06 142.28-3.66 146.43-3.66 146.43 0 137.03 0 137.03-3.1Q135.12-1.25 132.44-0.26 129.75 0.73 126.6 0.73L126.6 0.73Q123.6 0.73 121.01-0.06 118.43-0.85 116.51-2.39 114.59-3.93 113.49-6.2 112.39-8.47 112.39-11.45ZM144.04-5.13L144.04-32.81 145.01-32.81 145.01-5.13 144.04-5.13ZM133.12-27.51L133.12-28.44 136-28.44 136-27.51 133.12-27.51ZM117.69-11.65L117.69-11.65Q117.69-9.67 118.34-8.08 118.99-6.49 120.2-5.37 121.4-4.25 123.12-3.64 124.85-3.03 127.02-3.03L127.02-3.03Q128.17-3.03 129.35-3.26 130.53-3.49 131.65-3.97 132.76-4.44 133.74-5.16 134.73-5.88 135.45-6.87 136.17-7.86 136.6-9.13 137.03-10.4 137.03-11.96L137.03-11.96Q137.03-13.7 136.22-15.17 135.42-16.65 134.06-17.72 132.71-18.8 130.9-19.41 129.09-20.02 127.09-20.02L127.09-20.02Q125.14-20.02 123.43-19.41 121.72-18.8 120.44-17.7 119.16-16.6 118.43-15.05 117.69-13.5 117.69-11.65ZM119.4-11.65L119.4-11.65Q119.4-13.04 119.95-14.23 120.5-15.43 121.5-16.33 122.5-17.24 123.93-17.75 125.36-18.26 127.09-18.26L127.09-18.26Q129.58-18.26 131.29-17.53 133-16.8 133.61-15.7L133.61-15.7Q132.29-16.55 130.64-16.94 129-17.33 127.09-17.33L127.09-17.33Q125.55-17.33 124.32-16.88 123.09-16.43 122.22-15.65 121.35-14.87 120.88-13.81 120.4-12.74 120.4-11.55L120.4-11.55Q120.4-6.93 125.6-4.76L125.6-4.76Q124.11-4.93 122.97-5.54 121.82-6.15 121.03-7.07 120.23-7.98 119.82-9.16 119.4-10.33 119.4-11.65ZM138.49 1.71L148.19 1.71 148.19-2.29 149.16-2.29 149.16 2.64 138.49 2.64 138.49 1.71ZM115.54-1.05L115.54-1.05Q116.55-0.24 117.81 0.4 119.08 1.05 120.52 1.5 121.97 1.95 123.52 2.2 125.07 2.44 126.63 2.44L126.63 2.44Q129.34 2.44 131.69 1.77 134.05 1.1 135.88-0.1L135.88-0.1 135.88 1.03Q134.05 2.12 131.65 2.75 129.24 3.37 126.65 3.37L126.65 3.37Q122.7 3.37 119.89 2.26 117.08 1.15 115.54-1.05Z" opacity="1" transform="matrix(1,0,0,1,0,0)" fill="#000000" class="wordmark-text-0" data-fill-palette-color="quaternary" id="text-0"></path></svg></g></svg></g><g transform="matrix(1,0,0,1,0,70.92122916106814)"><svg viewBox="0 0 94.34343045711933 33.64628928156636" height="33.64628928156636" width="94.34343045711933"><g transform="matrix(1,0,0,1,0,0)"><svg width="94.34343045711933" viewBox="2 -35 98.69 35.2" height="33.64628928156636" data-palette-color="#000000"><path d="M17.65-32.3L17.65-32.3Q12-32.3 8.7-28.1 5.4-23.9 5.4-16L5.4-16Q5.4-12.6 6.1-10.05 6.8-7.5 7.83-6.1 8.85-4.7 10.35-3.9L10.35-3.9Q12.75-2.55 15.95-2.55L15.95-2.55Q20.9-2.55 25.85-3.65L25.85-3.65 26.45-1.05Q25.6-0.75 21.93-0.28 18.25 0.2 15.95 0.2 13.65 0.2 11.95-0.13 10.25-0.45 8.35-1.5 6.45-2.55 5.13-4.28 3.8-6 2.9-9 2-12 2-16L2-16Q2-24.85 6.05-29.8L6.05-29.8Q10.3-35 17.65-35L17.65-35Q19.9-35 22.53-34.58 25.15-34.15 26.25-33.75L26.25-33.75 26.85-26.55 24.4-26.2 23.7-31.6Q20.5-32.3 17.65-32.3ZM33.9-32.25L30.6-32.25 30.6-35 40.7-35 40.7-32.25 37.3-32.25 37.3-2.75 40.7-2.75 40.7 0 30.6 0 30.6-2.75 33.9-2.75 33.9-32.25ZM59.75 0L49.7 0 49.7-2.75 52.95-2.75 52.95-32 45.6-32 45.05-27.4 42.6-27.8 43.2-35 66-35 66.65-27.8 64.15-27.4 63.55-32 56.1-32 56.1-2.75 59.75-2.75 59.75 0ZM72.04-32.25L68.64-32.25 68.64-35 78.74-35 78.74-32.25 75.59-32.25 84.99-14.6 93.94-32.25 90.89-32.25 90.89-35 100.69-35 100.69-32.25 97.34-32.25 86.59-11.8 86.59-2.75 90.19-2.75 90.19 0 80.19 0 80.19-2.75 83.44-2.75 83.44-11.8 72.04-32.25Z" opacity="1" transform="matrix(1,0,0,1,0,0)" fill="#000000" class="slogan-text-1" data-fill-palette-color="quaternary" id="text-1"></path></svg></g></svg></g></svg></g></svg></g><g><svg viewBox="0 0 191.96633557957375 183.42831945063153" height="183.42831945063153" width="191.96633557957375"><g><svg xmlns="http://www.w3.org/2000/svg" xmlns:xlink="http://www.w3.org/1999/xlink" version="1.0" x="0" y="0" viewBox="13.899414099999998 18.3334961 73.48925779999999 70.2207031" enable-background="new 0 0 100 100" xml:space="preserve" height="183.42831945063153" width="191.96633557957375" class="icon-icon-0" data-fill-palette-color="quaternary" id="icon-0"><g fill="#000000" data-fill-palette-color="quaternary"><g fill="#000000" data-fill-palette-color="quaternary"><polygon points="75.640625,30.2915039 51.5292969,30.2915039 51.5292969,45.1577148 61.8925781,45.1577148 61.8925781,38.7167969     75.640625,35.5162964   " fill="#000000" data-fill-palette-color="quaternary"></polygon><path d="M64.893 41.099v4.059 43.396h22.496V35.861L64.893 41.099zM74.141 78.267h-4v-4h4V78.267zM74.141 69.517h-4v-4h4V69.517zM74.141 60.767h-4v-4h4V60.767zM74.141 52.017h-4v-4h4V52.017zM82.141 69.517h-4v-4h4V69.517zM82.141 60.767h-4v-4h4V60.767zM82.141 52.017h-4v-4h4V52.017z" fill="#000000" data-fill-palette-color="quaternary"></path><path d="M39.396 45.158h9.133V29.413L37.45 18.333H18.823v14.95h20.573V45.158zM27.877 28.131h-4v-4h4V28.131zM35.877 28.131h-4v-4h4V28.131z" fill="#000000" data-fill-palette-color="quaternary"></path><path d="M13.899 88.554h22.497V45.158v-8.875h-22.497V88.554zM27.148 42.892h4v4h-4V42.892zM27.148 51.642h4v4h-4V51.642zM27.148 60.392h4v4h-4V60.392zM27.148 69.142h4v4h-4V69.142zM19.148 42.892h4v4h-4V42.892zM19.148 51.642h4v4h-4V51.642zM19.148 60.392h4v4h-4V60.392zM19.148 69.142h4v4h-4V69.142z" fill="#000000" data-fill-palette-color="quaternary"></path><path d="M39.396 88.554h22.497V48.158h-22.497V88.554zM52.644 54.767h4v4h-4V54.767zM52.644 63.517h4v4h-4V63.517zM44.644 54.767h4v4h-4V54.767zM44.644 63.517h4v4h-4V63.517zM44.644 72.267h4v4h-4V72.267z" fill="#000000" data-fill-palette-color="quaternary"></path></g></g></svg></g></svg></g></svg></g></svg></g></svg></g><defs></defs><mask id="7782e6a4-da10-4a9e-a7dc-e1ec579b30ae"><g id="SvgjsG2134"><svg viewBox="0 0 342.85155851775386 342.85155851775386" height="342.85155851775386" width="342.85155851775386"><g><svg></svg></g><g><svg viewBox="0 0 342.85155851775386 342.85155851775386" height="342.85155851775386" width="342.85155851775386"><g><path d="M0 171.426c0-94.676 76.75-171.426 171.426-171.426 94.676 0 171.426 76.75 171.426 171.426 0 94.676-76.75 171.426-171.426 171.426-94.676 0-171.426-76.75-171.426-171.426zM171.426 340.354c93.297 0 168.928-75.632 168.928-168.928 0-93.297-75.632-168.928-168.928-168.928-93.297 0-168.928 75.632-168.928 168.928 0 93.297 75.632 168.928 168.928 168.928z" fill="white" stroke="transparent"></path><ellipse rx="164.56874808852186" ry="164.56874808852186" cx="171.42577925887693" cy="171.42577925887693" fill="white" stroke="transparent" stroke-width="0" fill-opacity="1"></ellipse></g><g transform="matrix(1,0,0,1,64.84655864529837,124.77274780195356)"><svg viewBox="0 0 213.1584412271571 93.30606291384673" height="93.30606291384673" width="213.1584412271571"><g><svg viewBox="0 0 419.04345151842494 183.42831945063153" height="93.30606291384673" width="213.1584412271571"><g transform="matrix(1,0,0,1,204.8192180851321,39.43040050399851)"><svg viewBox="0 0 214.22423343329288 104.56751844263451" height="104.56751844263451" width="214.22423343329288"><g id="SvgjsG2133"><svg viewBox="0 0 214.22423343329288 104.56751844263451" height="104.56751844263451" width="214.22423343329288" id="SvgjsSvg2132"><g><rect width="214.22423343329288" height="4.90980111712329" x="0" y="60.22763091644359" fill="black" opacity="1" stroke-width="0" stroke="transparent" fill-opacity="1" class="rect-qz-0" rx="1%" id="SvgjsRect2131" data-palette-color="#000000"></rect></g><g transform="matrix(1,0,0,1,0.532896103067884,0)"><svg viewBox="0 0 213.1584412271571 54.44383378894233" height="54.44383378894233" width="213.1584412271571"><g transform="matrix(1,0,0,1,0,0)"><svg width="213.1584412271571" viewBox="2.64 -34.06 146.52 37.43" height="54.44383378894233" data-palette-color="#000000"><path d="M2.64-15.21L2.64-15.21Q2.64-17.24 3.2-19.2 3.76-21.17 4.86-22.95 5.96-24.73 7.58-26.26 9.2-27.78 11.33-28.89 13.45-30 16.05-30.63 18.65-31.25 21.7-31.25L21.7-31.25Q25.76-31.25 28.69-30.2 31.62-29.15 33.84-27.32L33.84-27.32 33.84-30.4 39.6-30.4 39.6-21.61 33.84-21.61Q32.69-23 31.41-24.06 30.13-25.12 28.65-25.85 27.17-26.59 25.43-26.97 23.68-27.34 21.63-27.34L21.63-27.34Q18.6-27.34 16.26-26.39 13.92-25.44 12.3-23.79 10.69-22.14 9.86-19.92 9.03-17.7 9.03-15.19L9.03-15.19Q9.03-12.57 9.86-10.38 10.69-8.18 12.33-6.58 13.96-4.98 16.38-4.08 18.8-3.17 22-3.17L22-3.17Q24.85-3.17 27.12-3.85 29.39-4.52 31.02-5.73 32.64-6.93 33.58-8.62 34.52-10.3 34.74-12.35L34.74-12.35 24.49-12.35 24.49-15.41 40.33-15.41 40.33 0 34.77 0 34.77-3.88Q33.72-2.86 32.41-2.01 31.1-1.17 29.5-0.56 27.91 0.05 25.98 0.39 24.05 0.73 21.78 0.73L21.78 0.73Q17.21 0.73 13.65-0.5 10.08-1.73 7.64-3.88 5.2-6.03 3.92-8.94 2.64-11.84 2.64-15.21ZM35.3-18.97L35.3-19.9 41.36-19.9 41.36-29.15 42.33-29.15 42.33-18.97 35.3-18.97ZM10.79-15.21L10.79-15.21Q10.79-17.43 11.54-19.34 12.28-21.24 13.67-22.64 15.06-24.05 17.08-24.84 19.09-25.63 21.63-25.63L21.63-25.63Q23.39-25.63 24.82-25.38 26.25-25.12 27.38-24.63 28.52-24.15 29.42-23.43 30.32-22.71 31.05-21.78L31.05-21.78Q29.93-22.58 28.86-23.13 27.78-23.68 26.66-24.04 25.54-24.39 24.3-24.55 23.07-24.71 21.63-24.71L21.63-24.71Q19.31-24.71 17.48-23.96 15.65-23.22 14.38-21.94 13.11-20.65 12.44-18.92 11.77-17.19 11.77-15.21L11.77-15.21Q11.77-13.5 12.26-11.99 12.74-10.47 13.79-9.18 14.84-7.89 16.48-6.82 18.12-5.76 20.41-4.96L20.41-4.96Q18.14-5.32 16.36-6.18 14.58-7.03 13.34-8.34 12.11-9.64 11.45-11.36 10.79-13.09 10.79-15.21ZM36.23 1.71L42.09 1.71 42.09-14.18 43.07-14.18 43.07 2.64 36.23 2.64 36.23 1.71ZM25.85-9.72L25.85-10.64 33.37-10.64Q33.33-10.5 33.24-10.22 33.15-9.94 33.06-9.72L33.06-9.72 25.85-9.72ZM8.89-1.17L8.89-1.17Q10.28-0.22 11.68 0.46 13.09 1.15 14.64 1.59 16.19 2.03 17.96 2.23 19.73 2.44 21.83 2.44L21.83 2.44Q23.63 2.44 25.21 2.27 26.78 2.1 28.19 1.73 29.59 1.37 30.85 0.81 32.1 0.24 33.3-0.54L33.3-0.54 33.3 0.59Q30.79 2.12 27.97 2.75 25.15 3.37 21.78 3.37L21.78 3.37Q17.29 3.37 14.12 2.26 10.96 1.15 8.89-1.17ZM49.75-11.4L49.75-11.4Q49.75-14.06 50.9-16.42 52.05-18.77 54.11-20.52 56.17-22.27 59.06-23.28 61.94-24.29 65.38-24.29L65.38-24.29Q68.99-24.29 71.84-23.33 74.68-22.36 76.65-20.65 78.61-18.95 79.65-16.6 80.69-14.26 80.69-11.5L80.69-11.5Q80.69-8.84 79.55-6.59 78.42-4.35 76.33-2.72 74.24-1.1 71.32-0.18 68.41 0.73 64.82 0.73L64.82 0.73Q61.42 0.73 58.65-0.28 55.88-1.29 53.9-2.98 51.93-4.66 50.84-6.85 49.75-9.03 49.75-11.4ZM53.59-1.12L53.59-1.12Q55.95 0.59 58.82 1.51 61.69 2.44 65.31 2.44L65.31 2.44Q68.67 2.44 71.77 1.53 74.88 0.61 77.24-1.17 79.61-2.95 81.03-5.55 82.44-8.15 82.44-11.5L82.44-11.5Q82.44-13.13 81.99-14.81 81.54-16.48 80.72-18.02 79.9-19.56 78.73-20.89 77.56-22.22 76.12-23.14L76.12-23.14Q77.76-22.41 79.11-21.22 80.47-20.02 81.42-18.49 82.37-16.97 82.9-15.19 83.42-13.4 83.42-11.5L83.42-11.5Q83.42-9.11 82.74-7.07 82.05-5.03 80.84-3.38 79.64-1.73 77.96-0.46 76.29 0.81 74.29 1.65 72.29 2.49 70.03 2.93 67.77 3.37 65.43 3.37L65.43 3.37Q63.47 3.37 61.69 3.06 59.91 2.76 58.38 2.19 56.86 1.61 55.64 0.78 54.42-0.05 53.59-1.12ZM55.17-11.5L55.17-11.5Q55.17-9.62 55.89-8.07 56.61-6.52 57.93-5.41 59.25-4.3 61.09-3.69 62.94-3.08 65.18-3.08L65.18-3.08Q67.45-3.08 69.31-3.7 71.16-4.32 72.51-5.43 73.85-6.54 74.58-8.09 75.31-9.64 75.31-11.5L75.31-11.5Q75.31-13.33 74.58-14.95 73.85-16.58 72.53-17.81 71.21-19.04 69.37-19.76 67.53-20.48 65.31-20.48L65.31-20.48Q62.99-20.48 61.12-19.79 59.25-19.09 57.93-17.88 56.61-16.67 55.89-15.04 55.17-13.4 55.17-11.5ZM56.88-11.4L56.88-11.4Q56.88-12.94 57.49-14.29 58.1-15.65 59.21-16.64 60.32-17.63 61.87-18.2 63.43-18.77 65.31-18.77L65.31-18.77Q66.5-18.77 67.62-18.52 68.75-18.26 69.7-17.77 70.65-17.29 71.38-16.59 72.12-15.89 72.56-15.01L72.56-15.01Q70.94-16.48 69.2-17.16 67.45-17.85 65.26-17.85L65.26-17.85Q63.67-17.85 62.33-17.33 60.98-16.82 59.98-15.94 58.98-15.06 58.42-13.89 57.86-12.72 57.86-11.4L57.86-11.4Q57.86-10.3 58.13-9.35 58.4-8.4 59.04-7.58 59.69-6.76 60.76-6.1 61.84-5.44 63.45-4.93L63.45-4.93Q61.98-5.03 60.78-5.55 59.57-6.08 58.7-6.93 57.83-7.79 57.36-8.94 56.88-10.08 56.88-11.4ZM89.16 0L89.16-3.66 94.53-3.66 94.53-30.4 89.16-30.4 89.16-34.06 99.78-34.06 99.78-3.66 105.15-3.66 105.15 0 89.16 0ZM101.48-5.13L101.48-32.81 102.46-32.81 102.46-5.13 101.48-5.13ZM90.62-27.76L90.62-28.69 93.5-28.69 93.5-27.76 90.62-27.76ZM90.62 1.71L106.9 1.71 106.9-2.29 107.88-2.29 107.88 2.64 90.62 2.64 90.62 1.71ZM112.39-11.45L112.39-11.45Q112.39-13.72 113.35-15.93 114.3-18.14 116.17-19.89 118.03-21.63 120.79-22.72 123.55-23.8 127.14-23.8L127.14-23.8Q128.29-23.8 129.59-23.63 130.9-23.46 132.21-23.07 133.51-22.68 134.76-22.03 136-21.39 137.03-20.46L137.03-20.46 137.03-30.15 131.66-30.15 131.66-34.06 142.28-34.06 142.28-3.66 146.43-3.66 146.43 0 137.03 0 137.03-3.1Q135.12-1.25 132.44-0.26 129.75 0.73 126.6 0.73L126.6 0.73Q123.6 0.73 121.01-0.06 118.43-0.85 116.51-2.39 114.59-3.93 113.49-6.2 112.39-8.47 112.39-11.45ZM144.04-5.13L144.04-32.81 145.01-32.81 145.01-5.13 144.04-5.13ZM133.12-27.51L133.12-28.44 136-28.44 136-27.51 133.12-27.51ZM117.69-11.65L117.69-11.65Q117.69-9.67 118.34-8.08 118.99-6.49 120.2-5.37 121.4-4.25 123.12-3.64 124.85-3.03 127.02-3.03L127.02-3.03Q128.17-3.03 129.35-3.26 130.53-3.49 131.65-3.97 132.76-4.44 133.74-5.16 134.73-5.88 135.45-6.87 136.17-7.86 136.6-9.13 137.03-10.4 137.03-11.96L137.03-11.96Q137.03-13.7 136.22-15.17 135.42-16.65 134.06-17.72 132.71-18.8 130.9-19.41 129.09-20.02 127.09-20.02L127.09-20.02Q125.14-20.02 123.43-19.41 121.72-18.8 120.44-17.7 119.16-16.6 118.43-15.05 117.69-13.5 117.69-11.65ZM119.4-11.65L119.4-11.65Q119.4-13.04 119.95-14.23 120.5-15.43 121.5-16.33 122.5-17.24 123.93-17.75 125.36-18.26 127.09-18.26L127.09-18.26Q129.58-18.26 131.29-17.53 133-16.8 133.61-15.7L133.61-15.7Q132.29-16.55 130.64-16.94 129-17.33 127.09-17.33L127.09-17.33Q125.55-17.33 124.32-16.88 123.09-16.43 122.22-15.65 121.35-14.87 120.88-13.81 120.4-12.74 120.4-11.55L120.4-11.55Q120.4-6.93 125.6-4.76L125.6-4.76Q124.11-4.93 122.97-5.54 121.82-6.15 121.03-7.07 120.23-7.98 119.82-9.16 119.4-10.33 119.4-11.65ZM138.49 1.71L148.19 1.71 148.19-2.29 149.16-2.29 149.16 2.64 138.49 2.64 138.49 1.71ZM115.54-1.05L115.54-1.05Q116.55-0.24 117.81 0.4 119.08 1.05 120.52 1.5 121.97 1.95 123.52 2.2 125.07 2.44 126.63 2.44L126.63 2.44Q129.34 2.44 131.69 1.77 134.05 1.1 135.88-0.1L135.88-0.1 135.88 1.03Q134.05 2.12 131.65 2.75 129.24 3.37 126.65 3.37L126.65 3.37Q122.7 3.37 119.89 2.26 117.08 1.15 115.54-1.05Z" opacity="1" transform="matrix(1,0,0,1,0,0)" fill="black" class="wordmark-text-0" id="SvgjsPath2130"></path></svg></g></svg></g><g transform="matrix(1,0,0,1,0,70.92122916106814)"><svg viewBox="0 0 94.34343045711933 33.64628928156636" height="33.64628928156636" width="94.34343045711933"><g transform="matrix(1,0,0,1,0,0)"><svg width="94.34343045711933" viewBox="2 -35 98.69 35.2" height="33.64628928156636" data-palette-color="#000000"><path d="M17.65-32.3L17.65-32.3Q12-32.3 8.7-28.1 5.4-23.9 5.4-16L5.4-16Q5.4-12.6 6.1-10.05 6.8-7.5 7.83-6.1 8.85-4.7 10.35-3.9L10.35-3.9Q12.75-2.55 15.95-2.55L15.95-2.55Q20.9-2.55 25.85-3.65L25.85-3.65 26.45-1.05Q25.6-0.75 21.93-0.28 18.25 0.2 15.95 0.2 13.65 0.2 11.95-0.13 10.25-0.45 8.35-1.5 6.45-2.55 5.13-4.28 3.8-6 2.9-9 2-12 2-16L2-16Q2-24.85 6.05-29.8L6.05-29.8Q10.3-35 17.65-35L17.65-35Q19.9-35 22.53-34.58 25.15-34.15 26.25-33.75L26.25-33.75 26.85-26.55 24.4-26.2 23.7-31.6Q20.5-32.3 17.65-32.3ZM33.9-32.25L30.6-32.25 30.6-35 40.7-35 40.7-32.25 37.3-32.25 37.3-2.75 40.7-2.75 40.7 0 30.6 0 30.6-2.75 33.9-2.75 33.9-32.25ZM59.75 0L49.7 0 49.7-2.75 52.95-2.75 52.95-32 45.6-32 45.05-27.4 42.6-27.8 43.2-35 66-35 66.65-27.8 64.15-27.4 63.55-32 56.1-32 56.1-2.75 59.75-2.75 59.75 0ZM72.04-32.25L68.64-32.25 68.64-35 78.74-35 78.74-32.25 75.59-32.25 84.99-14.6 93.94-32.25 90.89-32.25 90.89-35 100.69-35 100.69-32.25 97.34-32.25 86.59-11.8 86.59-2.75 90.19-2.75 90.19 0 80.19 0 80.19-2.75 83.44-2.75 83.44-11.8 72.04-32.25Z" opacity="1" transform="matrix(1,0,0,1,0,0)" fill="black" class="slogan-text-1" id="SvgjsPath2129"></path></svg></g></svg></g></svg></g></svg></g><g><svg viewBox="0 0 191.96633557957375 183.42831945063153" height="183.42831945063153" width="191.96633557957375"><g><svg xmlns="http://www.w3.org/2000/svg" xmlns:xlink="http://www.w3.org/1999/xlink" version="1.0" x="0" y="0" viewBox="13.899414099999998 18.3334961 73.48925779999999 70.2207031" enable-background="new 0 0 100 100" xml:space="preserve" height="183.42831945063153" width="191.96633557957375" class="icon-icon-0" data-fill-palette-color="quaternary" id="SvgjsSvg2128"><g fill="black"><g fill="black"><polygon points="75.640625,30.2915039 51.5292969,30.2915039 51.5292969,45.1577148 61.8925781,45.1577148 61.8925781,38.7167969     75.640625,35.5162964   " fill="black"></polygon><path d="M64.893 41.099v4.059 43.396h22.496V35.861L64.893 41.099zM74.141 78.267h-4v-4h4V78.267zM74.141 69.517h-4v-4h4V69.517zM74.141 60.767h-4v-4h4V60.767zM74.141 52.017h-4v-4h4V52.017zM82.141 69.517h-4v-4h4V69.517zM82.141 60.767h-4v-4h4V60.767zM82.141 52.017h-4v-4h4V52.017z" fill="black"></path><path d="M39.396 45.158h9.133V29.413L37.45 18.333H18.823v14.95h20.573V45.158zM27.877 28.131h-4v-4h4V28.131zM35.877 28.131h-4v-4h4V28.131z" fill="black"></path><path d="M13.899 88.554h22.497V45.158v-8.875h-22.497V88.554zM27.148 42.892h4v4h-4V42.892zM27.148 51.642h4v4h-4V51.642zM27.148 60.392h4v4h-4V60.392zM27.148 69.142h4v4h-4V69.142zM19.148 42.892h4v4h-4V42.892zM19.148 51.642h4v4h-4V51.642zM19.148 60.392h4v4h-4V60.392zM19.148 69.142h4v4h-4V69.142z" fill="black"></path><path d="M39.396 88.554h22.497V48.158h-22.497V88.554zM52.644 54.767h4v4h-4V54.767zM52.644 63.517h4v4h-4V63.517zM44.644 54.767h4v4h-4V54.767zM44.644 63.517h4v4h-4V63.517zM44.644 72.267h4v4h-4V72.267z" fill="black"></path></g></g></svg></g></svg></g></svg></g></svg></g></svg></g><defs><mask></mask></defs></svg><rect width="342.85155851775386" height="342.85155851775386" fill="black" stroke="none" visibility="hidden"></rect></g></mask><linearGradient x1="0" x2="1" y1="0.5" y2="0.5" id="e66397b4-9877-4c4a-948b-6e3c672d990b"><stop stop-color="#ffa62e" offset="0"></stop><stop stop-color="#f71b3d" offset="1"></stop></linearGradient></svg><rect width="342.85155851775386" height="342.85155851775386" fill="none" stroke="none" visibility="hidden"></rect></g></svg></g></svg>